M48
; DRILL file {KiCad 5.1.9-73d0e3b20d~88~ubuntu20.04.1} date Sun Jan  3 13:43:22 2021
; FORMAT={-:-/ absolute / inch / decimal}
; #@! TF.CreationDate,2021-01-03T13:43:22+01:00
; #@! TF.GenerationSoftware,Kicad,Pcbnew,5.1.9-73d0e3b20d~88~ubuntu20.04.1
; #@! TF.FileFunction,Plated,1,2,PTH
FMAT,2
INCH
T1C0.0157
T2C0.1772
%
G90
G05
T1
X3.07Y-2.825
X3.07Y-2.9
X3.07Y-2.97
X3.07Y-3.33
X3.07Y-3.4
X3.07Y-3.465
X3.12Y-2.825
X3.12Y-2.9
X3.12Y-2.97
X3.12Y-3.33
X3.12Y-3.4
X3.12Y-3.465
X3.17Y-2.825
X3.17Y-2.9
X3.17Y-2.97
X3.17Y-3.33
X3.17Y-3.4
X3.17Y-3.465
X3.22Y-2.825
X3.22Y-2.9
X3.22Y-2.97
X3.22Y-3.33
X3.22Y-3.4
X3.22Y-3.465
X3.27Y-2.825
X3.27Y-2.9
X3.27Y-2.97
X3.27Y-3.33
X3.27Y-3.4
X3.27Y-3.465
X3.32Y-2.825
X3.32Y-2.9
X3.32Y-2.97
X3.32Y-3.33
X3.32Y-3.4
X3.32Y-3.465
X3.37Y-2.825
X3.37Y-3.465
X3.42Y-2.825
X3.42Y-3.465
X3.47Y-2.825
X3.47Y-3.465
X3.52Y-2.825
X3.52Y-3.465
X3.57Y-2.825
X3.57Y-3.465
X3.62Y-2.825
X3.62Y-3.465
X3.67Y-2.825
X3.67Y-3.465
X3.72Y-2.825
X3.72Y-3.465
X3.77Y-2.825
X3.77Y-3.465
X3.78Y-2.925
X3.78Y-2.975
X3.78Y-3.025
X3.78Y-3.075
X3.78Y-3.22
X3.78Y-3.27
X3.78Y-3.32
X3.78Y-3.37
X3.82Y-2.825
X3.82Y-3.465
X3.87Y-2.825
X3.87Y-3.465
X3.92Y-2.825
X3.92Y-3.465
X3.97Y-2.825
X3.97Y-3.465
X4.02Y-2.825
X4.02Y-3.465
X4.07Y-2.825
X4.07Y-3.465
X4.12Y-2.825
X4.12Y-3.465
X4.17Y-2.825
X4.17Y-3.465
X4.2Y-2.925
X4.2Y-2.975
X4.2Y-3.025
X4.2Y-3.075
X4.2Y-3.22
X4.2Y-3.27
X4.2Y-3.32
X4.2Y-3.37
X4.22Y-2.825
X4.22Y-3.465
X4.27Y-2.825
X4.27Y-3.465
X4.32Y-2.825
X4.32Y-3.465
X4.37Y-2.825
X4.37Y-3.465
X4.42Y-2.825
X4.42Y-3.465
X4.47Y-2.825
X4.47Y-3.465
X4.52Y-2.825
X4.52Y-3.465
X4.57Y-2.825
X4.57Y-3.465
X4.62Y-2.825
X4.62Y-2.925
X4.62Y-2.975
X4.62Y-3.025
X4.62Y-3.075
X4.62Y-3.22
X4.62Y-3.27
X4.62Y-3.32
X4.62Y-3.37
X4.62Y-3.465
X4.67Y-2.825
X4.67Y-3.465
X4.72Y-2.825
X4.72Y-3.465
X4.77Y-2.825
X4.77Y-3.465
X4.82Y-2.825
X4.82Y-3.465
X4.87Y-2.825
X4.87Y-3.465
X4.92Y-2.825
X4.92Y-3.465
X4.97Y-2.825
X4.97Y-3.465
X5.02Y-2.825
X5.02Y-3.465
X5.07Y-2.825
X5.07Y-2.9
X5.07Y-2.97
X5.07Y-3.33
X5.07Y-3.4
X5.07Y-3.465
X5.12Y-2.825
X5.12Y-2.9
X5.12Y-2.97
X5.12Y-3.33
X5.12Y-3.4
X5.12Y-3.465
X5.17Y-2.825
X5.17Y-2.9
X5.17Y-2.97
X5.17Y-3.33
X5.17Y-3.4
X5.17Y-3.465
X5.22Y-2.825
X5.22Y-2.9
X5.22Y-2.97
X5.22Y-3.33
X5.22Y-3.4
X5.22Y-3.465
X5.27Y-2.825
X5.27Y-2.9
X5.27Y-2.97
X5.27Y-3.33
X5.27Y-3.4
X5.27Y-3.465
X5.32Y-2.825
X5.32Y-2.9
X5.32Y-2.97
X5.32Y-3.33
X5.32Y-3.4
X5.32Y-3.465
T2
X3.57Y-3.0
X3.57Y-3.2835
X3.99Y-3.0
X3.99Y-3.2835
X4.41Y-3.0
X4.41Y-3.2835
X4.83Y-3.0
X4.83Y-3.2835
T0
M30
