%TF.GenerationSoftware,KiCad,Pcbnew,5.1.9-73d0e3b20d~88~ubuntu20.04.1*%
%TF.CreationDate,2021-01-03T13:42:43+01:00*%
%TF.ProjectId,XT60_panel,58543630-5f70-4616-9e65-6c2e6b696361,rev?*%
%TF.SameCoordinates,Original*%
%TF.FileFunction,Soldermask,Top*%
%TF.FilePolarity,Negative*%
%FSLAX46Y46*%
G04 Gerber Fmt 4.6, Leading zero omitted, Abs format (unit mm)*
G04 Created by KiCad (PCBNEW 5.1.9-73d0e3b20d~88~ubuntu20.04.1) date 2021-01-03 13:42:43*
%MOMM*%
%LPD*%
G01*
G04 APERTURE LIST*
%ADD10C,3.200000*%
%ADD11C,6.250000*%
G04 APERTURE END LIST*
D10*
%TO.C,H1*%
X81758000Y-80010000D03*
%TD*%
%TO.C,H2*%
X131758000Y-80010000D03*
%TD*%
%TO.C,J1*%
G36*
G01*
X88678000Y-73200000D02*
X92678000Y-73200000D01*
G75*
G02*
X94178000Y-74700000I0J-1500000D01*
G01*
X94178000Y-77700000D01*
G75*
G02*
X92678000Y-79200000I-1500000J0D01*
G01*
X88678000Y-79200000D01*
G75*
G02*
X87178000Y-77700000I0J1500000D01*
G01*
X87178000Y-74700000D01*
G75*
G02*
X88678000Y-73200000I1500000J0D01*
G01*
G37*
D11*
X90678000Y-83400000D03*
%TD*%
%TO.C,J2*%
X101346000Y-83400000D03*
G36*
G01*
X99346000Y-73200000D02*
X103346000Y-73200000D01*
G75*
G02*
X104846000Y-74700000I0J-1500000D01*
G01*
X104846000Y-77700000D01*
G75*
G02*
X103346000Y-79200000I-1500000J0D01*
G01*
X99346000Y-79200000D01*
G75*
G02*
X97846000Y-77700000I0J1500000D01*
G01*
X97846000Y-74700000D01*
G75*
G02*
X99346000Y-73200000I1500000J0D01*
G01*
G37*
%TD*%
%TO.C,J3*%
G36*
G01*
X110014000Y-73200000D02*
X114014000Y-73200000D01*
G75*
G02*
X115514000Y-74700000I0J-1500000D01*
G01*
X115514000Y-77700000D01*
G75*
G02*
X114014000Y-79200000I-1500000J0D01*
G01*
X110014000Y-79200000D01*
G75*
G02*
X108514000Y-77700000I0J1500000D01*
G01*
X108514000Y-74700000D01*
G75*
G02*
X110014000Y-73200000I1500000J0D01*
G01*
G37*
X112014000Y-83400000D03*
%TD*%
%TO.C,J4*%
X122682000Y-83400000D03*
G36*
G01*
X120682000Y-73200000D02*
X124682000Y-73200000D01*
G75*
G02*
X126182000Y-74700000I0J-1500000D01*
G01*
X126182000Y-77700000D01*
G75*
G02*
X124682000Y-79200000I-1500000J0D01*
G01*
X120682000Y-79200000D01*
G75*
G02*
X119182000Y-77700000I0J1500000D01*
G01*
X119182000Y-74700000D01*
G75*
G02*
X120682000Y-73200000I1500000J0D01*
G01*
G37*
%TD*%
M02*
