%TF.GenerationSoftware,KiCad,Pcbnew,5.1.9-73d0e3b20d~88~ubuntu20.04.1*%
%TF.CreationDate,2021-01-03T13:42:43+01:00*%
%TF.ProjectId,XT60_panel,58543630-5f70-4616-9e65-6c2e6b696361,rev?*%
%TF.SameCoordinates,Original*%
%TF.FileFunction,Legend,Top*%
%TF.FilePolarity,Positive*%
%FSLAX46Y46*%
G04 Gerber Fmt 4.6, Leading zero omitted, Abs format (unit mm)*
G04 Created by KiCad (PCBNEW 5.1.9-73d0e3b20d~88~ubuntu20.04.1) date 2021-01-03 13:42:43*
%MOMM*%
%LPD*%
G01*
G04 APERTURE LIST*
%ADD10C,0.250000*%
%ADD11C,0.120000*%
%ADD12C,0.010000*%
G04 APERTURE END LIST*
D10*
X131196095Y-86050857D02*
X132719904Y-86050857D01*
X131958000Y-86812761D02*
X131958000Y-85288952D01*
X130946095Y-74050857D02*
X132469904Y-74050857D01*
D11*
X79475857Y-87961571D02*
X79583000Y-87997285D01*
X79761571Y-87997285D01*
X79833000Y-87961571D01*
X79868714Y-87925857D01*
X79904428Y-87854428D01*
X79904428Y-87783000D01*
X79868714Y-87711571D01*
X79833000Y-87675857D01*
X79761571Y-87640142D01*
X79618714Y-87604428D01*
X79547285Y-87568714D01*
X79511571Y-87533000D01*
X79475857Y-87461571D01*
X79475857Y-87390142D01*
X79511571Y-87318714D01*
X79547285Y-87283000D01*
X79618714Y-87247285D01*
X79797285Y-87247285D01*
X79904428Y-87283000D01*
X80725857Y-88068714D02*
X80654428Y-88033000D01*
X80583000Y-87961571D01*
X80475857Y-87854428D01*
X80404428Y-87818714D01*
X80333000Y-87818714D01*
X80368714Y-87997285D02*
X80297285Y-87961571D01*
X80225857Y-87890142D01*
X80190142Y-87747285D01*
X80190142Y-87497285D01*
X80225857Y-87354428D01*
X80297285Y-87283000D01*
X80368714Y-87247285D01*
X80511571Y-87247285D01*
X80583000Y-87283000D01*
X80654428Y-87354428D01*
X80690142Y-87497285D01*
X80690142Y-87747285D01*
X80654428Y-87890142D01*
X80583000Y-87961571D01*
X80511571Y-87997285D01*
X80368714Y-87997285D01*
X81047285Y-87997285D02*
X81190142Y-87997285D01*
X81261571Y-87961571D01*
X81297285Y-87925857D01*
X81368714Y-87818714D01*
X81404428Y-87675857D01*
X81404428Y-87390142D01*
X81368714Y-87318714D01*
X81333000Y-87283000D01*
X81261571Y-87247285D01*
X81118714Y-87247285D01*
X81047285Y-87283000D01*
X81011571Y-87318714D01*
X80975857Y-87390142D01*
X80975857Y-87568714D01*
X81011571Y-87640142D01*
X81047285Y-87675857D01*
X81118714Y-87711571D01*
X81261571Y-87711571D01*
X81333000Y-87675857D01*
X81368714Y-87640142D01*
X81404428Y-87568714D01*
X81725857Y-87997285D02*
X81725857Y-87247285D01*
X82154428Y-87997285D01*
X82154428Y-87247285D01*
X82725857Y-87247285D02*
X82725857Y-87783000D01*
X82690142Y-87890142D01*
X82618714Y-87961571D01*
X82511571Y-87997285D01*
X82440142Y-87997285D01*
X83083000Y-87604428D02*
X83333000Y-87604428D01*
X83440142Y-87997285D02*
X83083000Y-87997285D01*
X83083000Y-87247285D01*
X83440142Y-87247285D01*
X81011571Y-86497285D02*
X81011571Y-85747285D01*
X81011571Y-86033000D02*
X81083000Y-85997285D01*
X81225857Y-85997285D01*
X81297285Y-86033000D01*
X81333000Y-86068714D01*
X81368714Y-86140142D01*
X81368714Y-86354428D01*
X81333000Y-86425857D01*
X81297285Y-86461571D01*
X81225857Y-86497285D01*
X81083000Y-86497285D01*
X81011571Y-86461571D01*
X81618714Y-85997285D02*
X81797285Y-86497285D01*
X81975857Y-85997285D02*
X81797285Y-86497285D01*
X81725857Y-86675857D01*
X81690142Y-86711571D01*
X81618714Y-86747285D01*
X77440142Y-84747285D02*
X77440142Y-85497285D01*
X77440142Y-85211571D02*
X77368714Y-85247285D01*
X77225857Y-85247285D01*
X77154428Y-85211571D01*
X77118714Y-85175857D01*
X77083000Y-85104428D01*
X77083000Y-84890142D01*
X77118714Y-84818714D01*
X77154428Y-84783000D01*
X77225857Y-84747285D01*
X77368714Y-84747285D01*
X77440142Y-84783000D01*
X78118714Y-84747285D02*
X78118714Y-85247285D01*
X77797285Y-84747285D02*
X77797285Y-85140142D01*
X77833000Y-85211571D01*
X77904428Y-85247285D01*
X78011571Y-85247285D01*
X78083000Y-85211571D01*
X78118714Y-85175857D01*
X78475857Y-85247285D02*
X78475857Y-84747285D01*
X78475857Y-84497285D02*
X78440142Y-84533000D01*
X78475857Y-84568714D01*
X78511571Y-84533000D01*
X78475857Y-84497285D01*
X78475857Y-84568714D01*
X78833000Y-85247285D02*
X78833000Y-84747285D01*
X78833000Y-84890142D02*
X78868714Y-84818714D01*
X78904428Y-84783000D01*
X78975857Y-84747285D01*
X79047285Y-84747285D01*
X79297285Y-85247285D02*
X79297285Y-84497285D01*
X79368714Y-84961571D02*
X79583000Y-85247285D01*
X79583000Y-84747285D02*
X79297285Y-85033000D01*
X79833000Y-84747285D02*
X80011571Y-85247285D01*
X80190142Y-84747285D02*
X80011571Y-85247285D01*
X79940142Y-85425857D01*
X79904428Y-85461571D01*
X79833000Y-85497285D01*
X81011571Y-85211571D02*
X81083000Y-85247285D01*
X81225857Y-85247285D01*
X81297285Y-85211571D01*
X81333000Y-85140142D01*
X81333000Y-85104428D01*
X81297285Y-85033000D01*
X81225857Y-84997285D01*
X81118714Y-84997285D01*
X81047285Y-84961571D01*
X81011571Y-84890142D01*
X81011571Y-84854428D01*
X81047285Y-84783000D01*
X81118714Y-84747285D01*
X81225857Y-84747285D01*
X81297285Y-84783000D01*
X81761571Y-85247285D02*
X81690142Y-85211571D01*
X81654428Y-85175857D01*
X81618714Y-85104428D01*
X81618714Y-84890142D01*
X81654428Y-84818714D01*
X81690142Y-84783000D01*
X81761571Y-84747285D01*
X81868714Y-84747285D01*
X81940142Y-84783000D01*
X81975857Y-84818714D01*
X82011571Y-84890142D01*
X82011571Y-85104428D01*
X81975857Y-85175857D01*
X81940142Y-85211571D01*
X81868714Y-85247285D01*
X81761571Y-85247285D01*
X82440142Y-85247285D02*
X82368714Y-85211571D01*
X82333000Y-85140142D01*
X82333000Y-84497285D01*
X83047285Y-84747285D02*
X83047285Y-85247285D01*
X82725857Y-84747285D02*
X82725857Y-85140142D01*
X82761571Y-85211571D01*
X82833000Y-85247285D01*
X82940142Y-85247285D01*
X83011571Y-85211571D01*
X83047285Y-85175857D01*
X83297285Y-84747285D02*
X83583000Y-84747285D01*
X83404428Y-84497285D02*
X83404428Y-85140142D01*
X83440142Y-85211571D01*
X83511571Y-85247285D01*
X83583000Y-85247285D01*
X83832999Y-85247285D02*
X83832999Y-84747285D01*
X83832999Y-84497285D02*
X83797285Y-84533000D01*
X83832999Y-84568714D01*
X83868714Y-84533000D01*
X83832999Y-84497285D01*
X83832999Y-84568714D01*
X84297285Y-85247285D02*
X84225857Y-85211571D01*
X84190142Y-85175857D01*
X84154428Y-85104428D01*
X84154428Y-84890142D01*
X84190142Y-84818714D01*
X84225857Y-84783000D01*
X84297285Y-84747285D01*
X84404428Y-84747285D01*
X84475857Y-84783000D01*
X84511571Y-84818714D01*
X84547285Y-84890142D01*
X84547285Y-85104428D01*
X84511571Y-85175857D01*
X84475857Y-85211571D01*
X84404428Y-85247285D01*
X84297285Y-85247285D01*
X84868714Y-84747285D02*
X84868714Y-85247285D01*
X84868714Y-84818714D02*
X84904428Y-84783000D01*
X84975857Y-84747285D01*
X85082999Y-84747285D01*
X85154428Y-84783000D01*
X85190142Y-84854428D01*
X85190142Y-85247285D01*
X85511571Y-85211571D02*
X85583000Y-85247285D01*
X85725857Y-85247285D01*
X85797285Y-85211571D01*
X85833000Y-85140142D01*
X85833000Y-85104428D01*
X85797285Y-85033000D01*
X85725857Y-84997285D01*
X85618714Y-84997285D01*
X85547285Y-84961571D01*
X85511571Y-84890142D01*
X85511571Y-84854428D01*
X85547285Y-84783000D01*
X85618714Y-84747285D01*
X85725857Y-84747285D01*
X85797285Y-84783000D01*
D12*
%TO.C,Ref\u002A\u002A*%
G36*
X81582160Y-72357435D02*
G01*
X81704471Y-72379334D01*
X81816462Y-72403552D01*
X81903165Y-72412110D01*
X81959329Y-72404764D01*
X81976583Y-72391999D01*
X82003432Y-72380269D01*
X82058615Y-72372582D01*
X82105801Y-72370833D01*
X82221937Y-72370833D01*
X82215677Y-73587487D01*
X82209416Y-74804142D01*
X82431666Y-74778004D01*
X82431666Y-75080166D01*
X81479166Y-75080166D01*
X81479166Y-74953166D01*
X81480364Y-74882722D01*
X81486590Y-74844684D01*
X81501792Y-74829137D01*
X81529738Y-74826166D01*
X81583328Y-74812981D01*
X81630280Y-74785750D01*
X81648875Y-74768940D01*
X81662347Y-74748744D01*
X81671697Y-74718374D01*
X81677923Y-74671040D01*
X81682026Y-74599951D01*
X81685006Y-74498318D01*
X81687062Y-74400093D01*
X81689378Y-74272490D01*
X81690125Y-74181798D01*
X81688749Y-74122606D01*
X81684699Y-74089504D01*
X81677424Y-74077081D01*
X81666372Y-74079928D01*
X81655312Y-74088793D01*
X81554994Y-74153754D01*
X81428502Y-74201139D01*
X81289331Y-74228154D01*
X81150976Y-74232004D01*
X81044924Y-74215200D01*
X80899918Y-74154609D01*
X80772222Y-74058093D01*
X80665978Y-73929960D01*
X80585325Y-73774520D01*
X80564054Y-73714916D01*
X80534071Y-73583233D01*
X80518272Y-73430416D01*
X80516619Y-73270678D01*
X80518343Y-73249566D01*
X81066671Y-73249566D01*
X81066679Y-73259833D01*
X81067540Y-73379849D01*
X81070692Y-73467322D01*
X81077372Y-73532026D01*
X81088820Y-73583738D01*
X81106273Y-73632234D01*
X81116977Y-73656862D01*
X81159856Y-73733504D01*
X81213361Y-73804796D01*
X81241823Y-73833826D01*
X81291189Y-73872797D01*
X81334734Y-73890501D01*
X81391785Y-73892794D01*
X81428123Y-73890265D01*
X81532343Y-73869249D01*
X81615223Y-73823349D01*
X81690833Y-73765678D01*
X81690754Y-73285214D01*
X81690477Y-73128909D01*
X81689402Y-73009019D01*
X81687072Y-72919628D01*
X81683032Y-72854819D01*
X81676826Y-72808675D01*
X81667999Y-72775279D01*
X81656094Y-72748715D01*
X81648411Y-72735430D01*
X81590607Y-72669960D01*
X81511643Y-72634356D01*
X81417418Y-72624833D01*
X81317284Y-72644654D01*
X81229317Y-72704398D01*
X81152973Y-72804486D01*
X81129916Y-72847083D01*
X81104235Y-72900424D01*
X81086620Y-72946140D01*
X81075564Y-72994071D01*
X81069559Y-73054058D01*
X81067097Y-73135943D01*
X81066671Y-73249566D01*
X80518343Y-73249566D01*
X80529071Y-73118234D01*
X80555590Y-72987295D01*
X80566183Y-72954608D01*
X80651210Y-72768323D01*
X80759754Y-72616306D01*
X80893598Y-72496497D01*
X81030959Y-72417343D01*
X81143817Y-72380216D01*
X81282709Y-72357325D01*
X81433527Y-72349466D01*
X81582160Y-72357435D01*
G37*
X81582160Y-72357435D02*
X81704471Y-72379334D01*
X81816462Y-72403552D01*
X81903165Y-72412110D01*
X81959329Y-72404764D01*
X81976583Y-72391999D01*
X82003432Y-72380269D01*
X82058615Y-72372582D01*
X82105801Y-72370833D01*
X82221937Y-72370833D01*
X82215677Y-73587487D01*
X82209416Y-74804142D01*
X82431666Y-74778004D01*
X82431666Y-75080166D01*
X81479166Y-75080166D01*
X81479166Y-74953166D01*
X81480364Y-74882722D01*
X81486590Y-74844684D01*
X81501792Y-74829137D01*
X81529738Y-74826166D01*
X81583328Y-74812981D01*
X81630280Y-74785750D01*
X81648875Y-74768940D01*
X81662347Y-74748744D01*
X81671697Y-74718374D01*
X81677923Y-74671040D01*
X81682026Y-74599951D01*
X81685006Y-74498318D01*
X81687062Y-74400093D01*
X81689378Y-74272490D01*
X81690125Y-74181798D01*
X81688749Y-74122606D01*
X81684699Y-74089504D01*
X81677424Y-74077081D01*
X81666372Y-74079928D01*
X81655312Y-74088793D01*
X81554994Y-74153754D01*
X81428502Y-74201139D01*
X81289331Y-74228154D01*
X81150976Y-74232004D01*
X81044924Y-74215200D01*
X80899918Y-74154609D01*
X80772222Y-74058093D01*
X80665978Y-73929960D01*
X80585325Y-73774520D01*
X80564054Y-73714916D01*
X80534071Y-73583233D01*
X80518272Y-73430416D01*
X80516619Y-73270678D01*
X80518343Y-73249566D01*
X81066671Y-73249566D01*
X81066679Y-73259833D01*
X81067540Y-73379849D01*
X81070692Y-73467322D01*
X81077372Y-73532026D01*
X81088820Y-73583738D01*
X81106273Y-73632234D01*
X81116977Y-73656862D01*
X81159856Y-73733504D01*
X81213361Y-73804796D01*
X81241823Y-73833826D01*
X81291189Y-73872797D01*
X81334734Y-73890501D01*
X81391785Y-73892794D01*
X81428123Y-73890265D01*
X81532343Y-73869249D01*
X81615223Y-73823349D01*
X81690833Y-73765678D01*
X81690754Y-73285214D01*
X81690477Y-73128909D01*
X81689402Y-73009019D01*
X81687072Y-72919628D01*
X81683032Y-72854819D01*
X81676826Y-72808675D01*
X81667999Y-72775279D01*
X81656094Y-72748715D01*
X81648411Y-72735430D01*
X81590607Y-72669960D01*
X81511643Y-72634356D01*
X81417418Y-72624833D01*
X81317284Y-72644654D01*
X81229317Y-72704398D01*
X81152973Y-72804486D01*
X81129916Y-72847083D01*
X81104235Y-72900424D01*
X81086620Y-72946140D01*
X81075564Y-72994071D01*
X81069559Y-73054058D01*
X81067097Y-73135943D01*
X81066671Y-73249566D01*
X80518343Y-73249566D01*
X80529071Y-73118234D01*
X80555590Y-72987295D01*
X80566183Y-72954608D01*
X80651210Y-72768323D01*
X80759754Y-72616306D01*
X80893598Y-72496497D01*
X81030959Y-72417343D01*
X81143817Y-72380216D01*
X81282709Y-72357325D01*
X81433527Y-72349466D01*
X81582160Y-72357435D01*
G36*
X80044320Y-73683746D02*
G01*
X80117453Y-73726342D01*
X80174402Y-73790678D01*
X80211593Y-73870008D01*
X80225451Y-73957586D01*
X80212403Y-74046666D01*
X80168873Y-74130499D01*
X80122493Y-74179023D01*
X80043314Y-74220653D01*
X79949161Y-74233756D01*
X79857706Y-74216758D01*
X79832183Y-74204864D01*
X79760404Y-74143271D01*
X79717076Y-74060716D01*
X79701594Y-73967025D01*
X79713354Y-73872026D01*
X79751753Y-73785545D01*
X79816184Y-73717407D01*
X79863801Y-73690762D01*
X79958578Y-73669638D01*
X80044320Y-73683746D01*
G37*
X80044320Y-73683746D02*
X80117453Y-73726342D01*
X80174402Y-73790678D01*
X80211593Y-73870008D01*
X80225451Y-73957586D01*
X80212403Y-74046666D01*
X80168873Y-74130499D01*
X80122493Y-74179023D01*
X80043314Y-74220653D01*
X79949161Y-74233756D01*
X79857706Y-74216758D01*
X79832183Y-74204864D01*
X79760404Y-74143271D01*
X79717076Y-74060716D01*
X79701594Y-73967025D01*
X79713354Y-73872026D01*
X79751753Y-73785545D01*
X79816184Y-73717407D01*
X79863801Y-73690762D01*
X79958578Y-73669638D01*
X80044320Y-73683746D01*
G36*
X82927038Y-73671786D02*
G01*
X83005496Y-73704293D01*
X83070426Y-73764102D01*
X83115297Y-73847934D01*
X83133580Y-73952509D01*
X83131935Y-73999978D01*
X83104398Y-74092238D01*
X83046392Y-74164730D01*
X82967004Y-74212755D01*
X82875326Y-74231617D01*
X82780445Y-74216620D01*
X82744141Y-74200365D01*
X82680313Y-74143519D01*
X82638336Y-74061573D01*
X82620163Y-73966789D01*
X82627745Y-73871432D01*
X82663033Y-73787767D01*
X82675776Y-73770870D01*
X82755648Y-73701795D01*
X82841579Y-73669860D01*
X82927038Y-73671786D01*
G37*
X82927038Y-73671786D02*
X83005496Y-73704293D01*
X83070426Y-73764102D01*
X83115297Y-73847934D01*
X83133580Y-73952509D01*
X83131935Y-73999978D01*
X83104398Y-74092238D01*
X83046392Y-74164730D01*
X82967004Y-74212755D01*
X82875326Y-74231617D01*
X82780445Y-74216620D01*
X82744141Y-74200365D01*
X82680313Y-74143519D01*
X82638336Y-74061573D01*
X82620163Y-73966789D01*
X82627745Y-73871432D01*
X82663033Y-73787767D01*
X82675776Y-73770870D01*
X82755648Y-73701795D01*
X82841579Y-73669860D01*
X82927038Y-73671786D01*
G36*
X82993315Y-71662690D02*
G01*
X83063010Y-71715812D01*
X83090972Y-71756669D01*
X83105544Y-71788193D01*
X83116511Y-71824179D01*
X83123808Y-71869052D01*
X83127367Y-71927238D01*
X83127121Y-72003162D01*
X83123003Y-72101251D01*
X83114947Y-72225930D01*
X83102884Y-72381625D01*
X83086749Y-72572762D01*
X83076919Y-72685448D01*
X83059805Y-72882920D01*
X83046007Y-73042323D01*
X83034431Y-73167690D01*
X83023984Y-73263056D01*
X83013572Y-73332455D01*
X83002100Y-73379921D01*
X82988474Y-73409487D01*
X82971600Y-73425187D01*
X82950384Y-73431056D01*
X82923733Y-73431127D01*
X82890551Y-73429434D01*
X82875207Y-73429166D01*
X82808450Y-73426744D01*
X82762646Y-73420452D01*
X82748881Y-73413291D01*
X82746886Y-73389064D01*
X82741367Y-73327868D01*
X82732803Y-73234881D01*
X82721675Y-73115277D01*
X82708465Y-72974232D01*
X82693652Y-72816921D01*
X82685499Y-72730666D01*
X82665222Y-72514378D01*
X82649135Y-72335985D01*
X82637171Y-72191260D01*
X82629264Y-72075981D01*
X82625347Y-71985921D01*
X82625353Y-71916857D01*
X82629217Y-71864563D01*
X82636870Y-71824815D01*
X82648248Y-71793388D01*
X82663283Y-71766057D01*
X82670128Y-71755590D01*
X82737899Y-71686507D01*
X82820917Y-71648012D01*
X82909336Y-71640082D01*
X82993315Y-71662690D01*
G37*
X82993315Y-71662690D02*
X83063010Y-71715812D01*
X83090972Y-71756669D01*
X83105544Y-71788193D01*
X83116511Y-71824179D01*
X83123808Y-71869052D01*
X83127367Y-71927238D01*
X83127121Y-72003162D01*
X83123003Y-72101251D01*
X83114947Y-72225930D01*
X83102884Y-72381625D01*
X83086749Y-72572762D01*
X83076919Y-72685448D01*
X83059805Y-72882920D01*
X83046007Y-73042323D01*
X83034431Y-73167690D01*
X83023984Y-73263056D01*
X83013572Y-73332455D01*
X83002100Y-73379921D01*
X82988474Y-73409487D01*
X82971600Y-73425187D01*
X82950384Y-73431056D01*
X82923733Y-73431127D01*
X82890551Y-73429434D01*
X82875207Y-73429166D01*
X82808450Y-73426744D01*
X82762646Y-73420452D01*
X82748881Y-73413291D01*
X82746886Y-73389064D01*
X82741367Y-73327868D01*
X82732803Y-73234881D01*
X82721675Y-73115277D01*
X82708465Y-72974232D01*
X82693652Y-72816921D01*
X82685499Y-72730666D01*
X82665222Y-72514378D01*
X82649135Y-72335985D01*
X82637171Y-72191260D01*
X82629264Y-72075981D01*
X82625347Y-71985921D01*
X82625353Y-71916857D01*
X82629217Y-71864563D01*
X82636870Y-71824815D01*
X82648248Y-71793388D01*
X82663283Y-71766057D01*
X82670128Y-71755590D01*
X82737899Y-71686507D01*
X82820917Y-71648012D01*
X82909336Y-71640082D01*
X82993315Y-71662690D01*
G36*
X80058309Y-72267310D02*
G01*
X80130532Y-72313079D01*
X80185180Y-72380578D01*
X80218330Y-72463075D01*
X80226059Y-72553834D01*
X80204443Y-72646122D01*
X80149559Y-72733205D01*
X80148566Y-72734322D01*
X80077785Y-72785264D01*
X79988501Y-72810711D01*
X79896640Y-72808365D01*
X79825474Y-72780948D01*
X79753298Y-72712188D01*
X79711993Y-72625351D01*
X79700608Y-72529944D01*
X79718189Y-72435473D01*
X79763787Y-72351443D01*
X79836450Y-72287361D01*
X79876831Y-72267903D01*
X79972434Y-72250007D01*
X80058309Y-72267310D01*
G37*
X80058309Y-72267310D02*
X80130532Y-72313079D01*
X80185180Y-72380578D01*
X80218330Y-72463075D01*
X80226059Y-72553834D01*
X80204443Y-72646122D01*
X80149559Y-72733205D01*
X80148566Y-72734322D01*
X80077785Y-72785264D01*
X79988501Y-72810711D01*
X79896640Y-72808365D01*
X79825474Y-72780948D01*
X79753298Y-72712188D01*
X79711993Y-72625351D01*
X79700608Y-72529944D01*
X79718189Y-72435473D01*
X79763787Y-72351443D01*
X79836450Y-72287361D01*
X79876831Y-72267903D01*
X79972434Y-72250007D01*
X80058309Y-72267310D01*
D11*
%TO.C,J1*%
X94828000Y-87650000D02*
X94828000Y-74800000D01*
X92278000Y-71950000D02*
X89128000Y-71950000D01*
X86528000Y-74800000D02*
X86528000Y-87650000D01*
X86528000Y-87650000D02*
X94828000Y-87650000D01*
X94828000Y-74800000D02*
X92278000Y-71950000D01*
X89128000Y-71950000D02*
X86528000Y-74800000D01*
%TO.C,J2*%
X99796000Y-71950000D02*
X97196000Y-74800000D01*
X105496000Y-74800000D02*
X102946000Y-71950000D01*
X97196000Y-87650000D02*
X105496000Y-87650000D01*
X97196000Y-74800000D02*
X97196000Y-87650000D01*
X102946000Y-71950000D02*
X99796000Y-71950000D01*
X105496000Y-87650000D02*
X105496000Y-74800000D01*
%TO.C,J3*%
X116164000Y-87650000D02*
X116164000Y-74800000D01*
X113614000Y-71950000D02*
X110464000Y-71950000D01*
X107864000Y-74800000D02*
X107864000Y-87650000D01*
X107864000Y-87650000D02*
X116164000Y-87650000D01*
X116164000Y-74800000D02*
X113614000Y-71950000D01*
X110464000Y-71950000D02*
X107864000Y-74800000D01*
%TO.C,J4*%
X121132000Y-71950000D02*
X118532000Y-74800000D01*
X126832000Y-74800000D02*
X124282000Y-71950000D01*
X118532000Y-87650000D02*
X126832000Y-87650000D01*
X118532000Y-74800000D02*
X118532000Y-87650000D01*
X124282000Y-71950000D02*
X121132000Y-71950000D01*
X126832000Y-87650000D02*
X126832000Y-74800000D01*
%TD*%
M02*
